<svg width="121" height="40" xmlns="http://www.w3.org/2000/svg" xmlns:xlink="http://www.w3.org/1999/xlink"><defs><path id="a" d="M60.33 0H0v40h120.661V0z"/><path id="c" d="M0 40h120.661V0H0z"/></defs><g fill="none" fill-rule="evenodd"><g><mask id="b" fill="#fff"><use xlink:href="#a"/></mask><path d="M111.053 0H9.614c-.37 0-.735 0-1.104.002-.308.002-.615.008-.927.013-.676.007-1.352.067-2.02.176a6.507 6.507 0 00-3.548 1.806A6.273 6.273 0 00.826 3.618a6.557 6.557 0 00-.63 1.903 12.829 12.829 0 00-.182 2.002c-.01.307-.01.615-.015.921v23.115c.005.31.006.611.015.921.008.671.068 1.34.181 2.002a6.5 6.5 0 00.63 1.905 6.198 6.198 0 001.188 1.614 6.333 6.333 0 001.632 1.179c.604.304 1.25.516 1.917.631.668.108 1.344.168 2.02.176.312.007.619.011.927.011.37.002.734.002 1.104.002h101.439c.362 0 .73 0 1.093-.002.307 0 .622-.004.93-.011a13.49 13.49 0 002.016-.176 6.935 6.935 0 001.924-.631 6.31 6.31 0 001.63-1.179 6.4 6.4 0 001.192-1.614c.305-.6.515-1.242.624-1.905.112-.662.176-1.331.188-2.002.003-.31.003-.611.003-.921.008-.364.008-.725.008-1.094V9.536c0-.366 0-.729-.008-1.092 0-.306 0-.614-.003-.921-.012-.67-.076-1.34-.188-2.002a6.544 6.544 0 00-.624-1.903 6.492 6.492 0 00-2.822-2.8 6.893 6.893 0 00-1.924-.627 13.23 13.23 0 00-2.017-.176c-.307-.005-.622-.011-.93-.013-.361-.002-.73-.002-1.092-.002" fill="#A6A6A6" mask="url(#b)"/></g><path d="M8.515 39.125c-.307 0-.607-.004-.911-.01a12.795 12.795 0 01-1.885-.164 5.954 5.954 0 01-1.67-.548 5.442 5.442 0 01-1.41-1.016A5.357 5.357 0 011.61 35.99a5.723 5.723 0 01-.547-1.657c-.104-.62-.16-1.247-.168-1.875-.006-.21-.015-.913-.015-.913v-23.1s.01-.692.015-.895c.008-.628.064-1.253.167-1.872a5.726 5.726 0 01.548-1.662c.263-.518.608-.99 1.024-1.398a5.625 5.625 0 011.413-1.023 5.926 5.926 0 011.668-.544 12.877 12.877 0 011.89-.164l.91-.012h103.626l.92.013c.628.007 1.255.061 1.875.162a6.005 6.005 0 011.684.548 5.613 5.613 0 012.435 2.42 5.72 5.72 0 01.54 1.65c.104.623.164 1.254.175 1.886.003.283.003.588.003.89.008.375.008.732.008 1.092v20.93c0 .362 0 .717-.008 1.074 0 .325 0 .623-.004.93a12.55 12.55 0 01-.172 1.853 5.737 5.737 0 01-.544 1.67 5.481 5.481 0 01-1.025 1.386 5.422 5.422 0 01-1.411 1.022 5.927 5.927 0 01-1.681.55 12.82 12.82 0 01-1.886.163c-.295.007-.604.011-.904.011l-1.093.002-102.538-.002z" fill="#000"/><path d="M24.975 20.3a4.937 4.937 0 012.376-4.151 5.12 5.12 0 00-4.024-2.158c-1.693-.176-3.335 1.005-4.198 1.005-.88 0-2.207-.987-3.638-.958a5.364 5.364 0 00-4.51 2.728c-1.95 3.348-.496 8.269 1.372 10.975.935 1.327 2.027 2.807 3.457 2.754 1.398-.057 1.92-.884 3.608-.884 1.673 0 2.163.884 3.621.85 1.5-.023 2.447-1.331 3.35-2.67a10.936 10.936 0 001.53-3.091 4.781 4.781 0 01-2.944-4.4M22.22 12.211a4.849 4.849 0 001.125-3.491 5.015 5.015 0 00-3.235 1.66 4.617 4.617 0 00-1.153 3.361 4.146 4.146 0 003.264-1.53M38.376 25.59h3.784l-1.866-5.446h-.051l-1.867 5.447zm4.279 1.55h-4.773l-1.146 3.356h-2.022l4.521-12.418h2.1l4.521 12.418H43.8l-1.145-3.356zM53.693 25.97c0-1.833-.955-3.038-2.413-3.038-1.432 0-2.394 1.23-2.394 3.038 0 1.824.962 3.046 2.394 3.046 1.458 0 2.413-1.196 2.413-3.046m1.926 0c0 2.813-1.518 4.62-3.81 4.62a3.1 3.1 0 01-2.872-1.583h-.043v4.484H47.02V21.443h1.814v1.506h.034a3.245 3.245 0 012.907-1.601c2.318 0 3.844 1.816 3.844 4.622M63.742 25.97c0-1.833-.955-3.038-2.413-3.038-1.432 0-2.395 1.23-2.395 3.038 0 1.824.963 3.046 2.395 3.046 1.458 0 2.413-1.196 2.413-3.046m1.926 0c0 2.813-1.519 4.62-3.81 4.62a3.1 3.1 0 01-2.873-1.583h-.043v4.484h-1.875V21.443h1.814v1.506h.035a3.245 3.245 0 012.907-1.601c2.318 0 3.845 1.816 3.845 4.622M72.308 27.036c.14 1.231 1.346 2.04 2.994 2.04 1.58 0 2.716-.809 2.716-1.919 0-.964-.686-1.54-2.308-1.936l-1.623-.388c-2.3-.55-3.367-1.617-3.367-3.348 0-2.142 1.883-3.614 4.556-3.614 2.645 0 4.46 1.472 4.521 3.614h-1.891c-.114-1.239-1.147-1.987-2.657-1.987-1.509 0-2.541.757-2.541 1.858 0 .878.66 1.395 2.273 1.79l1.379.336c2.57.603 3.637 1.626 3.637 3.443 0 2.323-1.867 3.778-4.835 3.778-2.777 0-4.651-1.42-4.771-3.667h1.917zM84.041 19.3v2.143h1.737v1.47H84.04v4.992c0 .776.348 1.137 1.111 1.137.206-.004.412-.017.617-.043v1.463a5.125 5.125 0 01-1.041.086c-1.848 0-2.57-.688-2.57-2.444v-5.19h-1.327v-1.471h1.327V19.3h1.883zM93.534 25.97c0-1.954-.904-3.107-2.421-3.107-1.519 0-2.421 1.162-2.421 3.107 0 1.962.902 3.106 2.42 3.106 1.518 0 2.422-1.144 2.422-3.106m-6.751 0c0-2.85 1.69-4.64 4.33-4.64 2.647 0 4.33 1.79 4.33 4.64 0 2.856-1.675 4.639-4.33 4.639-2.655 0-4.33-1.783-4.33-4.64M96.988 21.442h1.787v1.541h.043a2.176 2.176 0 012.196-1.636c.216 0 .432.023.643.07v1.738a2.64 2.64 0 00-.842-.111 1.881 1.881 0 00-1.953 2.082v5.37h-1.874v-9.053zM103.962 25.135h4.563a2.184 2.184 0 00-2.07-2.295c-.056-.003-.113-.004-.168-.003a2.301 2.301 0 00-2.325 2.278v.02zm6.334 2.702c-.252 1.644-1.865 2.772-3.93 2.772-2.656 0-4.305-1.765-4.305-4.596 0-2.84 1.658-4.682 4.226-4.682 2.526 0 4.114 1.72 4.114 4.466v.637h-6.448v.112a2.363 2.363 0 002.456 2.565 2.068 2.068 0 002.108-1.274h1.779zM36.903 13.854h1.134a1.885 1.885 0 001.984-2.146 1.884 1.884 0 00-1.62-2.119 1.836 1.836 0 00-.364-.015h-1.134v4.28zm1.239-5.123a2.653 2.653 0 012.844 2.444c.014.174.008.348-.014.521 0 1.906-1.038 3.002-2.83 3.002h-2.174V8.731h2.174zM45.389 12.444c0-.976-.442-1.547-1.218-1.547-.779 0-1.217.571-1.217 1.547 0 .984.438 1.55 1.217 1.55.776 0 1.218-.57 1.218-1.55m-3.361 0a2.14 2.14 0 011.936-2.327 2.147 2.147 0 012.346 2.327 2.14 2.14 0 01-1.932 2.331 2.149 2.149 0 01-2.35-1.917 2.184 2.184 0 010-.414M52.003 14.698h-.93l-.938-3.316h-.071l-.935 3.316h-.92l-1.252-4.503h.909l.814 3.436h.067l.933-3.436h.86l.934 3.436h.07l.81-3.436h.895zM54.302 10.195h.862v.715h.068a1.36 1.36 0 011.355-.802 1.474 1.474 0 011.571 1.675v2.915h-.895v-2.692c0-.724-.318-1.083-.98-1.083a1.038 1.038 0 00-1.084 1.14v2.635h-.897v-4.503z" fill="#FFF"/><mask id="d" fill="#fff"><use xlink:href="#c"/></mask><path fill="#FFF" mask="url(#d)" d="M59.586 14.698h.897v-6.26h-.897zM65.089 12.444c0-.976-.442-1.547-1.218-1.547-.779 0-1.217.571-1.217 1.547 0 .984.438 1.55 1.217 1.55.776 0 1.218-.57 1.218-1.55m-3.361 0a2.139 2.139 0 011.937-2.327 2.147 2.147 0 012.346 2.327 2.141 2.141 0 01-1.934 2.331 2.148 2.148 0 01-2.35-2.33M69.873 13.04v-.376l-1.109.07c-.625.04-.908.252-.908.649 0 .406.355.64.842.64a1.066 1.066 0 001.175-.983m-2.919.385c0-.811.61-1.278 1.69-1.344l1.23-.071v-.388c0-.476-.317-.745-.93-.745-.5 0-.847.183-.946.5h-.868c.091-.773.826-1.27 1.855-1.27 1.138 0 1.78.563 1.78 1.515v3.076h-.862v-.633h-.071a1.531 1.531 0 01-1.364.707 1.368 1.368 0 01-1.514-1.347M72.869 12.444c0 .955.454 1.53 1.213 1.53.755 0 1.222-.583 1.222-1.526 0-.939-.472-1.53-1.222-1.53-.754 0-1.213.58-1.213 1.526m-.926 0c0-1.423.737-2.324 1.885-2.324a1.498 1.498 0 011.392.79h.067V8.437h.896v6.26h-.858v-.71h-.071c-.292.503-.841.806-1.426.785-1.155 0-1.885-.902-1.885-2.328M83.252 12.444c0-.976-.442-1.547-1.219-1.547-.778 0-1.217.571-1.217 1.547 0 .984.439 1.55 1.217 1.55.777 0 1.219-.57 1.219-1.55m-3.361 0a2.138 2.138 0 011.936-2.327 2.147 2.147 0 012.346 2.327 2.14 2.14 0 01-1.933 2.331 2.147 2.147 0 01-2.35-2.33M85.375 10.195h.863v.715h.067a1.36 1.36 0 011.355-.802 1.473 1.473 0 011.571 1.675v2.915h-.895v-2.692c0-.724-.318-1.083-.98-1.083a1.038 1.038 0 00-1.084 1.14v2.635h-.897v-4.503zM94.295 9.074v1.142h.984v.748h-.984v2.316c0 .47.196.678.642.678.114-.001.227-.008.342-.021v.74a3.086 3.086 0 01-.488.046c-.996 0-1.394-.348-1.394-1.216v-2.543h-.72v-.748h.72V9.074h.898zM96.503 8.437h.888v2.481h.07a1.396 1.396 0 011.384-.806 1.491 1.491 0 011.576 1.4c.005.093.001.186-.012.28v2.906h-.896V12.01c0-.719-.338-1.084-.972-1.084a1.059 1.059 0 00-1.142 1.142v2.63h-.896v-6.26zM102.482 12.03h2.293a1.088 1.088 0 00-1.012-1.163c-.035-.003-.07-.003-.106-.003a1.157 1.157 0 00-1.174 1.167h-.001zm3.153 1.452a1.843 1.843 0 01-1.967 1.303 2.054 2.054 0 01-2.098-2.324 2.078 2.078 0 012.094-2.353c1.263 0 2.025.856 2.025 2.27v.31h-3.206v.05a1.193 1.193 0 001.209 1.29c.438.052.865-.164 1.08-.546h.863z"/></g></svg>